<?xml version="1.0" encoding="UTF-8"?> <svg xmlns="http://www.w3.org/2000/svg" width="943" height="837" viewBox="0 0 943 837" fill="none"> <path d="M693.303 86.2119C635.838 106.577 520.894 182.006 520.845 320.803C519.502 377.68 492.96 506.496 397.532 566.745C370.259 578.737 308.396 620.372 279.127 690.982" stroke="url(#paint0_linear_616_192)" stroke-opacity="0.4" stroke-linecap="round" stroke-dasharray="6 6"></path> <path d="M414.938 1.3579C371.959 44.5987 301.014 162.363 361.073 287.493C384.492 339.342 416.349 466.948 356.422 562.579C337.031 585.197 299.299 649.515 303.492 725.836" stroke="url(#paint1_linear_616_192)" stroke-opacity="0.4" stroke-linecap="round" stroke-dasharray="6 6"></path> <path d="M941.575 364.777C883.272 346.954 746.008 339.188 663.385 450.713C628.465 495.628 530.487 583.369 417.941 575.014C388.886 568.425 314.392 565.08 248.855 604.416" stroke="url(#paint2_linear_616_192)" stroke-opacity="0.4" stroke-linecap="round" stroke-dasharray="6 6"></path> <defs> <linearGradient id="paint0_linear_616_192" x1="109.016" y1="32.705" x2="633.435" y2="-73.0802" gradientUnits="userSpaceOnUse"> <stop stop-color="#B0FFC1"></stop> <stop offset="0.211458" stop-color="#ECFFBB"></stop> <stop offset="0.398958" stop-color="#FFB8BC"></stop> <stop offset="0.565625" stop-color="#F3B5CC"></stop> <stop offset="0.732292" stop-color="#E69BF9"></stop> <stop offset="0.867708" stop-color="#97B4FF"></stop> <stop offset="1" stop-color="#08FFFD"></stop> </linearGradient> <linearGradient id="paint1_linear_616_192" x1="-134.896" y1="206.142" x2="291.996" y2="-116.3" gradientUnits="userSpaceOnUse"> <stop stop-color="#B0FFC1"></stop> <stop offset="0.211458" stop-color="#ECFFBB"></stop> <stop offset="0.398958" stop-color="#FFB8BC"></stop> <stop offset="0.565625" stop-color="#F3B5CC"></stop> <stop offset="0.732292" stop-color="#E69BF9"></stop> <stop offset="0.867708" stop-color="#97B4FF"></stop> <stop offset="1" stop-color="#08FFFD"></stop> </linearGradient> <linearGradient id="paint2_linear_616_192" x1="503.803" y1="-25.8754" x2="988.235" y2="201.128" gradientUnits="userSpaceOnUse"> <stop stop-color="#B0FFC1"></stop> <stop offset="0.211458" stop-color="#ECFFBB"></stop> <stop offset="0.398958" stop-color="#FFB8BC"></stop> <stop offset="0.565625" stop-color="#F3B5CC"></stop> <stop offset="0.732292" stop-color="#E69BF9"></stop> <stop offset="0.867708" stop-color="#97B4FF"></stop> <stop offset="1" stop-color="#08FFFD"></stop> </linearGradient> </defs> </svg> 