<?xml version="1.0" encoding="UTF-8"?> <svg xmlns="http://www.w3.org/2000/svg" width="40" height="40" viewBox="0 0 40 40" fill="none"> <rect width="40" height="40" rx="11" fill="#2C2C2C"></rect> <path d="M27.7777 18.8809V23.7777C27.7777 25.6633 27.7777 26.6061 27.1919 27.1919C26.6061 27.7777 25.6633 27.7777 23.7777 27.7777H17.3332C15.4476 27.7777 14.5048 27.7777 13.919 27.1919C13.3333 26.6061 13.3333 25.6633 13.3333 23.7777V18.8809C13.3333 18.7466 13.3333 18.617 13.3335 18.492C13.3362 16.8628 13.375 16.0108 13.919 15.4667C14.4025 14.9833 15.1292 14.8988 16.4285 14.8841C16.7036 14.8809 17.0044 14.8809 17.334 14.8809H23.7769C24.1065 14.8809 24.4073 14.8809 24.6825 14.8841C25.9817 14.8988 26.7085 14.9833 27.1919 15.4667C27.736 16.0108 27.7747 16.8628 27.7775 18.492C27.7777 18.617 27.7777 18.7466 27.7777 18.8809Z" fill="#2C2C2C"></path> <path d="M25.4325 13.3333C25.4325 12.9191 25.0967 12.5833 24.6825 12.5833C24.2682 12.5833 23.9325 12.9191 23.9325 13.3333H25.4325ZM23.9325 16.4286C23.9325 16.8428 24.2682 17.1786 24.6825 17.1786C25.0967 17.1786 25.4325 16.8428 25.4325 16.4286H23.9325ZM17.1785 13.3333C17.1785 12.9191 16.8427 12.5833 16.4285 12.5833C16.0143 12.5833 15.6785 12.9191 15.6785 13.3333H17.1785ZM15.6785 16.4286C15.6785 16.8428 16.0143 17.1786 16.4285 17.1786C16.8427 17.1786 17.1785 16.8428 17.1785 16.4286H15.6785ZM13.919 27.1919L13.3887 27.7223L13.3887 27.7223L13.919 27.1919ZM27.1919 15.4667L26.6616 15.997L26.6616 15.997L27.1919 15.4667ZM13.919 15.4667L13.3887 14.9364L13.3887 14.9364L13.919 15.4667ZM27.0277 18.8809V23.7777H28.5277V18.8809H27.0277ZM23.7777 27.0277H17.3332V28.5277H23.7777V27.0277ZM14.0833 23.7777V18.8809H12.5833V23.7777H14.0833ZM17.334 15.6309H23.7769V14.1309H17.334V15.6309ZM27.7777 17.742H27.7775V19.242H27.7777V17.742ZM27.7775 17.742H13.3335V19.242H27.7775V17.742ZM13.3335 17.742H13.3333V19.242H13.3335V17.742ZM23.9325 13.3333V14.8841H25.4325V13.3333H23.9325ZM23.9325 14.8841V16.4286H25.4325V14.8841H23.9325ZM15.6785 13.3333V14.8841H17.1785V13.3333H15.6785ZM15.6785 14.8841V16.4286H17.1785V14.8841H15.6785ZM17.3332 27.0277C16.3692 27.0277 15.7217 27.0261 15.2386 26.9612C14.7772 26.8991 14.5797 26.7919 14.4494 26.6616L13.3887 27.7223C13.8442 28.1777 14.411 28.3634 15.0388 28.4478C15.645 28.5293 16.4116 28.5277 17.3332 28.5277V27.0277ZM12.5833 23.7777C12.5833 24.6993 12.5817 25.466 12.6632 26.0722C12.7476 26.7 12.9332 27.2668 13.3887 27.7223L14.4494 26.6616C14.3191 26.5313 14.2118 26.3338 14.1498 25.8723C14.0848 25.3893 14.0833 24.7417 14.0833 23.7777H12.5833ZM27.0277 23.7777C27.0277 24.7417 27.0261 25.3893 26.9612 25.8723C26.8991 26.3338 26.7919 26.5313 26.6616 26.6616L27.7222 27.7223C28.1777 27.2668 28.3634 26.7 28.4478 26.0722C28.5293 25.466 28.5277 24.6993 28.5277 23.7777H27.0277ZM23.7777 28.5277C24.6993 28.5277 25.466 28.5293 26.0722 28.4478C26.7 28.3634 27.2668 28.1777 27.7222 27.7223L26.6616 26.6616C26.5313 26.7919 26.3338 26.8991 25.8723 26.9612C25.3893 27.0261 24.7417 27.0277 23.7777 27.0277V28.5277ZM28.5277 18.8809C28.5277 18.7467 28.5277 18.6165 28.5275 18.4908L27.0275 18.4933C27.0277 18.6176 27.0277 18.7465 27.0277 18.8809H28.5277ZM28.5275 18.4908C28.5261 17.6888 28.5173 17.0071 28.4281 16.4532C28.3354 15.8774 28.1445 15.3587 27.7222 14.9364L26.6616 15.997C26.7833 16.1188 26.8839 16.2981 26.9472 16.6917C27.0141 17.1071 27.0261 17.666 27.0275 18.4933L28.5275 18.4908ZM23.7769 15.6309C24.1076 15.6309 24.4039 15.6309 24.6739 15.634L24.691 14.1341C24.4108 14.1309 24.1054 14.1309 23.7769 14.1309V15.6309ZM24.6739 15.634C25.3234 15.6414 25.7651 15.6669 26.0917 15.7342C26.3979 15.7973 26.5519 15.8874 26.6616 15.997L27.7222 14.9364C27.3485 14.5626 26.8974 14.3688 26.3946 14.2651C25.9121 14.1656 25.3408 14.1415 24.691 14.1341L24.6739 15.634ZM14.0833 18.8809C14.0833 18.7465 14.0833 18.6175 14.0835 18.4933L12.5835 18.4908C12.5833 18.6165 12.5833 18.7467 12.5833 18.8809H14.0833ZM14.0835 18.4933C14.0849 17.666 14.0968 17.1071 14.1637 16.6917C14.2271 16.2981 14.3276 16.1188 14.4494 15.997L13.3887 14.9364C12.9664 15.3587 12.7755 15.8774 12.6828 16.4532C12.5936 17.0071 12.5848 17.6888 12.5835 18.4908L14.0835 18.4933ZM17.334 14.1309C17.0055 14.1309 16.7002 14.1309 16.42 14.1341L16.437 15.634C16.7071 15.6309 17.0033 15.6309 17.334 15.6309V14.1309ZM16.42 14.1341C15.7701 14.1415 15.1988 14.1656 14.7164 14.2651C14.2135 14.3688 13.7625 14.5626 13.3887 14.9364L14.4494 15.997C14.559 15.8874 14.713 15.7973 15.0192 15.7342C15.3458 15.6669 15.7875 15.6414 16.437 15.634L16.42 14.1341Z" fill="#E7E7E7"></path> </svg> 