<?xml version="1.0" encoding="UTF-8"?> <svg xmlns="http://www.w3.org/2000/svg" width="64" height="30" viewBox="0 0 64 30" fill="none"> <path d="M1.008 11V0.569999H2.912V9.32H7.378V11H1.008ZM12.0676 11.168C11.2836 11.168 10.5976 10.9907 10.0096 10.636C9.42156 10.2813 8.96423 9.80067 8.63756 9.194C8.3109 8.58733 8.14756 7.91533 8.14756 7.178C8.14756 6.41267 8.3109 5.736 8.63756 5.148C8.97356 4.55067 9.42623 4.07933 9.99556 3.734C10.5742 3.38867 11.2182 3.216 11.9276 3.216C12.5249 3.216 13.0476 3.314 13.4956 3.51C13.9529 3.706 14.3402 3.97667 14.6576 4.322C14.9749 4.66733 15.2176 5.064 15.3856 5.512C15.5536 5.95067 15.6376 6.42667 15.6376 6.94C15.6376 7.07067 15.6282 7.206 15.6096 7.346C15.6002 7.486 15.5769 7.60733 15.5396 7.71H9.65956V6.31H14.5036L13.6356 6.968C13.7196 6.53867 13.6962 6.156 13.5656 5.82C13.4442 5.484 13.2389 5.218 12.9496 5.022C12.6696 4.826 12.3289 4.728 11.9276 4.728C11.5449 4.728 11.2042 4.826 10.9056 5.022C10.6069 5.20867 10.3782 5.48867 10.2196 5.862C10.0702 6.226 10.0142 6.66933 10.0516 7.192C10.0142 7.65867 10.0749 8.074 10.2336 8.438C10.4016 8.79267 10.6442 9.068 10.9616 9.264C11.2882 9.46 11.6616 9.558 12.0816 9.558C12.5016 9.558 12.8562 9.46933 13.1456 9.292C13.4442 9.11467 13.6776 8.87667 13.8456 8.578L15.3296 9.306C15.1802 9.67 14.9469 9.992 14.6296 10.272C14.3122 10.552 13.9342 10.7713 13.4956 10.93C13.0662 11.0887 12.5902 11.168 12.0676 11.168ZM19.9258 11.168C19.1138 11.168 18.4045 10.9767 17.7978 10.594C17.2005 10.202 16.7898 9.67467 16.5658 9.012L17.9378 8.354C18.1338 8.78333 18.4045 9.11933 18.7498 9.362C19.1045 9.60467 19.4965 9.726 19.9258 9.726C20.2618 9.726 20.5278 9.65133 20.7238 9.502C20.9198 9.35267 21.0178 9.15667 21.0178 8.914C21.0178 8.76467 20.9758 8.64333 20.8918 8.55C20.8172 8.44733 20.7098 8.36333 20.5698 8.298C20.4392 8.22333 20.2945 8.16267 20.1358 8.116L18.8898 7.766C18.2458 7.57933 17.7558 7.29467 17.4198 6.912C17.0932 6.52933 16.9298 6.07667 16.9298 5.554C16.9298 5.08733 17.0465 4.68133 17.2798 4.336C17.5225 3.98133 17.8538 3.706 18.2738 3.51C18.7032 3.314 19.1932 3.216 19.7438 3.216C20.4625 3.216 21.0972 3.38867 21.6478 3.734C22.1985 4.07933 22.5905 4.56467 22.8238 5.19L21.4238 5.848C21.2932 5.50267 21.0738 5.22733 20.7658 5.022C20.4578 4.81667 20.1125 4.714 19.7298 4.714C19.4218 4.714 19.1792 4.784 19.0018 4.924C18.8245 5.064 18.7358 5.246 18.7358 5.47C18.7358 5.61 18.7732 5.73133 18.8478 5.834C18.9225 5.93667 19.0252 6.02067 19.1558 6.086C19.2958 6.15133 19.4545 6.212 19.6318 6.268L20.8498 6.632C21.4752 6.81867 21.9558 7.09867 22.2918 7.472C22.6372 7.84533 22.8098 8.30267 22.8098 8.844C22.8098 9.30133 22.6885 9.70733 22.4458 10.062C22.2032 10.4073 21.8672 10.678 21.4378 10.874C21.0085 11.07 20.5045 11.168 19.9258 11.168ZM27.1172 11.168C26.3052 11.168 25.5959 10.9767 24.9892 10.594C24.3919 10.202 23.9812 9.67467 23.7572 9.012L25.1292 8.354C25.3252 8.78333 25.5959 9.11933 25.9412 9.362C26.2959 9.60467 26.6879 9.726 27.1172 9.726C27.4532 9.726 27.7192 9.65133 27.9152 9.502C28.1112 9.35267 28.2092 9.15667 28.2092 8.914C28.2092 8.76467 28.1672 8.64333 28.0832 8.55C28.0086 8.44733 27.9012 8.36333 27.7612 8.298C27.6306 8.22333 27.4859 8.16267 27.3272 8.116L26.0812 7.766C25.4372 7.57933 24.9472 7.29467 24.6112 6.912C24.2846 6.52933 24.1212 6.07667 24.1212 5.554C24.1212 5.08733 24.2379 4.68133 24.4712 4.336C24.7139 3.98133 25.0452 3.706 25.4652 3.51C25.8946 3.314 26.3846 3.216 26.9352 3.216C27.6539 3.216 28.2886 3.38867 28.8392 3.734C29.3899 4.07933 29.7819 4.56467 30.0152 5.19L28.6152 5.848C28.4846 5.50267 28.2652 5.22733 27.9572 5.022C27.6492 4.81667 27.3039 4.714 26.9212 4.714C26.6132 4.714 26.3706 4.784 26.1932 4.924C26.0159 5.064 25.9272 5.246 25.9272 5.47C25.9272 5.61 25.9646 5.73133 26.0392 5.834C26.1139 5.93667 26.2166 6.02067 26.3472 6.086C26.4872 6.15133 26.6459 6.212 26.8232 6.268L28.0412 6.632C28.6666 6.81867 29.1472 7.09867 29.4832 7.472C29.8286 7.84533 30.0012 8.30267 30.0012 8.844C30.0012 9.30133 29.8799 9.70733 29.6372 10.062C29.3946 10.4073 29.0586 10.678 28.6292 10.874C28.1999 11.07 27.6959 11.168 27.1172 11.168ZM35.1346 11.168C34.388 11.168 33.7066 10.9953 33.0906 10.65C32.484 10.3047 31.9986 9.83333 31.6346 9.236C31.28 8.63867 31.1026 7.95733 31.1026 7.192C31.1026 6.42667 31.28 5.74533 31.6346 5.148C31.9986 4.55067 32.484 4.07933 33.0906 3.734C33.6973 3.38867 34.3786 3.216 35.1346 3.216C35.8813 3.216 36.558 3.38867 37.1646 3.734C37.7713 4.07933 38.252 4.55067 38.6066 5.148C38.9706 5.736 39.1526 6.41733 39.1526 7.192C39.1526 7.95733 38.9706 8.63867 38.6066 9.236C38.2426 9.83333 37.7573 10.3047 37.1506 10.65C36.544 10.9953 35.872 11.168 35.1346 11.168ZM35.1346 9.488C35.5453 9.488 35.9046 9.39 36.2126 9.194C36.53 8.998 36.7773 8.72733 36.9546 8.382C37.1413 8.02733 37.2346 7.63067 37.2346 7.192C37.2346 6.744 37.1413 6.352 36.9546 6.016C36.7773 5.67067 36.53 5.4 36.2126 5.204C35.9046 4.99867 35.5453 4.896 35.1346 4.896C34.7146 4.896 34.346 4.99867 34.0286 5.204C33.7113 5.4 33.4593 5.67067 33.2726 6.016C33.0953 6.352 33.0066 6.744 33.0066 7.192C33.0066 7.63067 33.0953 8.02733 33.2726 8.382C33.4593 8.72733 33.7113 8.998 34.0286 9.194C34.346 9.39 34.7146 9.488 35.1346 9.488ZM40.5435 11V3.384H42.2655V4.882L42.1255 4.616C42.3028 4.15867 42.5921 3.81333 42.9935 3.58C43.4041 3.33733 43.8801 3.216 44.4215 3.216C44.9815 3.216 45.4761 3.33733 45.9055 3.58C46.3441 3.82267 46.6848 4.16333 46.9275 4.602C47.1701 5.03133 47.2915 5.53067 47.2915 6.1V11H45.4575V6.534C45.4575 6.198 45.3921 5.90867 45.2615 5.666C45.1308 5.42333 44.9488 5.23667 44.7155 5.106C44.4915 4.966 44.2255 4.896 43.9175 4.896C43.6188 4.896 43.3528 4.966 43.1195 5.106C42.8861 5.23667 42.7041 5.42333 42.5735 5.666C42.4428 5.90867 42.3775 6.198 42.3775 6.534V11H40.5435ZM4.732 29.168C4.06933 29.168 3.45333 29.0467 2.884 28.804C2.324 28.5613 1.83867 28.2253 1.428 27.796C1.02667 27.3573 0.732667 26.8487 0.546 26.27L2.128 25.584C2.38 26.1813 2.744 26.6527 3.22 26.998C3.696 27.334 4.23267 27.502 4.83 27.502C5.166 27.502 5.45533 27.4507 5.698 27.348C5.95 27.236 6.14133 27.0867 6.272 26.9C6.412 26.7133 6.482 26.4893 6.482 26.228C6.482 25.92 6.38867 25.668 6.202 25.472C6.02467 25.2667 5.754 25.108 5.39 24.996L3.388 24.352C2.576 24.1 1.96467 23.722 1.554 23.218C1.14333 22.714 0.938 22.1213 0.938 21.44C0.938 20.8427 1.08267 20.3153 1.372 19.858C1.67067 19.4007 2.08133 19.046 2.604 18.794C3.136 18.5327 3.74267 18.402 4.424 18.402C5.04933 18.402 5.62333 18.514 6.146 18.738C6.66867 18.9527 7.11667 19.256 7.49 19.648C7.87267 20.0307 8.15733 20.4833 8.344 21.006L6.776 21.706C6.57067 21.1833 6.26267 20.782 5.852 20.502C5.44133 20.2127 4.96533 20.068 4.424 20.068C4.10667 20.068 3.82667 20.124 3.584 20.236C3.34133 20.3387 3.15 20.488 3.01 20.684C2.87933 20.8707 2.814 21.0947 2.814 21.356C2.814 21.6453 2.90733 21.902 3.094 22.126C3.28067 22.3407 3.56533 22.5087 3.948 22.63L5.866 23.232C6.69667 23.5027 7.31733 23.876 7.728 24.352C8.148 24.828 8.358 25.416 8.358 26.116C8.358 26.7133 8.204 27.2407 7.896 27.698C7.588 28.1553 7.16333 28.5147 6.622 28.776C6.08067 29.0373 5.45067 29.168 4.732 29.168ZM13.5865 29.168C12.8305 29.168 12.1491 28.9953 11.5425 28.65C10.9451 28.2953 10.4738 27.8193 10.1285 27.222C9.78312 26.6153 9.61045 25.934 9.61045 25.178C9.61045 24.422 9.78312 23.7453 10.1285 23.148C10.4738 22.5507 10.9451 22.0793 11.5425 21.734C12.1491 21.3887 12.8305 21.216 13.5865 21.216C14.1278 21.216 14.6318 21.314 15.0985 21.51C15.5651 21.6967 15.9665 21.958 16.3025 22.294C16.6478 22.6207 16.8951 23.0127 17.0445 23.47L15.4345 24.17C15.2945 23.7873 15.0565 23.4793 14.7205 23.246C14.3938 23.0127 14.0158 22.896 13.5865 22.896C13.1851 22.896 12.8258 22.994 12.5085 23.19C12.2005 23.386 11.9578 23.6567 11.7805 24.002C11.6031 24.3473 11.5145 24.744 11.5145 25.192C11.5145 25.64 11.6031 26.0367 11.7805 26.382C11.9578 26.7273 12.2005 26.998 12.5085 27.194C12.8258 27.39 13.1851 27.488 13.5865 27.488C14.0251 27.488 14.4078 27.3713 14.7345 27.138C15.0611 26.9047 15.2945 26.592 15.4345 26.2L17.0445 26.928C16.8951 27.3573 16.6525 27.7447 16.3165 28.09C15.9805 28.426 15.5791 28.692 15.1125 28.888C14.6458 29.0747 14.1371 29.168 13.5865 29.168ZM18.436 29V18.402H20.27V22.882L20.018 22.616C20.1954 22.1587 20.4847 21.8133 20.886 21.58C21.2967 21.3373 21.7727 21.216 22.314 21.216C22.874 21.216 23.3687 21.3373 23.798 21.58C24.2367 21.8227 24.5774 22.1633 24.82 22.602C25.0627 23.0313 25.184 23.5307 25.184 24.1V29H23.35V24.534C23.35 24.198 23.2847 23.9087 23.154 23.666C23.0234 23.4233 22.8414 23.2367 22.608 23.106C22.384 22.966 22.118 22.896 21.81 22.896C21.5114 22.896 21.2454 22.966 21.012 23.106C20.7787 23.2367 20.5967 23.4233 20.466 23.666C20.3354 23.9087 20.27 24.198 20.27 24.534V29H18.436ZM30.3469 29.168C29.5629 29.168 28.8769 28.9907 28.2889 28.636C27.7009 28.2813 27.2435 27.8007 26.9169 27.194C26.5902 26.5873 26.4269 25.9153 26.4269 25.178C26.4269 24.4127 26.5902 23.736 26.9169 23.148C27.2529 22.5507 27.7055 22.0793 28.2749 21.734C28.8535 21.3887 29.4975 21.216 30.2069 21.216C30.8042 21.216 31.3269 21.314 31.7749 21.51C32.2322 21.706 32.6195 21.9767 32.9369 22.322C33.2542 22.6673 33.4969 23.064 33.6649 23.512C33.8329 23.9507 33.9169 24.4267 33.9169 24.94C33.9169 25.0707 33.9075 25.206 33.8889 25.346C33.8795 25.486 33.8562 25.6073 33.8189 25.71H27.9389V24.31H32.7829L31.9149 24.968C31.9989 24.5387 31.9755 24.156 31.8449 23.82C31.7235 23.484 31.5182 23.218 31.2289 23.022C30.9489 22.826 30.6082 22.728 30.2069 22.728C29.8242 22.728 29.4835 22.826 29.1849 23.022C28.8862 23.2087 28.6575 23.4887 28.4989 23.862C28.3495 24.226 28.2935 24.6693 28.3309 25.192C28.2935 25.6587 28.3542 26.074 28.5129 26.438C28.6809 26.7927 28.9235 27.068 29.2409 27.264C29.5675 27.46 29.9409 27.558 30.3609 27.558C30.7809 27.558 31.1355 27.4693 31.4249 27.292C31.7235 27.1147 31.9569 26.8767 32.1249 26.578L33.6089 27.306C33.4595 27.67 33.2262 27.992 32.9089 28.272C32.5915 28.552 32.2135 28.7713 31.7749 28.93C31.3455 29.0887 30.8695 29.168 30.3469 29.168ZM38.8491 29.168C38.1118 29.168 37.4538 28.9953 36.8751 28.65C36.2965 28.2953 35.8391 27.8147 35.5031 27.208C35.1671 26.6013 34.9991 25.9293 34.9991 25.192C34.9991 24.4453 35.1671 23.7733 35.5031 23.176C35.8391 22.5787 36.2965 22.1027 36.8751 21.748C37.4631 21.3933 38.1165 21.216 38.8351 21.216C39.4138 21.216 39.9271 21.3327 40.3751 21.566C40.8325 21.79 41.1918 22.1073 41.4531 22.518L41.1731 22.896V18.402H43.0071V29H41.2711V27.53L41.4671 27.894C41.2058 28.3047 40.8418 28.622 40.3751 28.846C39.9085 29.0607 39.3998 29.168 38.8491 29.168ZM39.0451 27.488C39.4651 27.488 39.8338 27.39 40.1511 27.194C40.4685 26.998 40.7158 26.7273 40.8931 26.382C41.0798 26.0367 41.1731 25.64 41.1731 25.192C41.1731 24.7533 41.0798 24.3613 40.8931 24.016C40.7158 23.6613 40.4685 23.386 40.1511 23.19C39.8338 22.994 39.4651 22.896 39.0451 22.896C38.6345 22.896 38.2658 22.9987 37.9391 23.204C37.6125 23.4 37.3558 23.6707 37.1691 24.016C36.9918 24.352 36.9031 24.744 36.9031 25.192C36.9031 25.64 36.9918 26.0367 37.1691 26.382C37.3558 26.7273 37.6125 26.998 37.9391 27.194C38.2658 27.39 38.6345 27.488 39.0451 27.488ZM47.4294 29.168C46.8414 29.168 46.328 29.0373 45.8894 28.776C45.46 28.5147 45.1287 28.1507 44.8954 27.684C44.6714 27.2173 44.5594 26.6713 44.5594 26.046V21.384H46.3934V25.892C46.3934 26.2093 46.454 26.4893 46.5754 26.732C46.706 26.9653 46.888 27.152 47.1214 27.292C47.364 27.4227 47.6347 27.488 47.9334 27.488C48.232 27.488 48.498 27.4227 48.7314 27.292C48.9647 27.152 49.1467 26.9607 49.2774 26.718C49.408 26.4753 49.4734 26.186 49.4734 25.85V21.384H51.3074V29H49.5714V27.502L49.7254 27.768C49.548 28.2347 49.254 28.5847 48.8434 28.818C48.442 29.0513 47.9707 29.168 47.4294 29.168ZM53.0122 29V18.402H54.8462V29H53.0122ZM60.1515 29.168C59.3675 29.168 58.6815 28.9907 58.0935 28.636C57.5055 28.2813 57.0482 27.8007 56.7215 27.194C56.3949 26.5873 56.2315 25.9153 56.2315 25.178C56.2315 24.4127 56.3949 23.736 56.7215 23.148C57.0575 22.5507 57.5102 22.0793 58.0795 21.734C58.6582 21.3887 59.3022 21.216 60.0115 21.216C60.6089 21.216 61.1315 21.314 61.5795 21.51C62.0369 21.706 62.4242 21.9767 62.7415 22.322C63.0589 22.6673 63.3015 23.064 63.4695 23.512C63.6375 23.9507 63.7215 24.4267 63.7215 24.94C63.7215 25.0707 63.7122 25.206 63.6935 25.346C63.6842 25.486 63.6609 25.6073 63.6235 25.71H57.7435V24.31H62.5875L61.7195 24.968C61.8035 24.5387 61.7802 24.156 61.6495 23.82C61.5282 23.484 61.3229 23.218 61.0335 23.022C60.7535 22.826 60.4129 22.728 60.0115 22.728C59.6289 22.728 59.2882 22.826 58.9895 23.022C58.6909 23.2087 58.4622 23.4887 58.3035 23.862C58.1542 24.226 58.0982 24.6693 58.1355 25.192C58.0982 25.6587 58.1589 26.074 58.3175 26.438C58.4855 26.7927 58.7282 27.068 59.0455 27.264C59.3722 27.46 59.7455 27.558 60.1655 27.558C60.5855 27.558 60.9402 27.4693 61.2295 27.292C61.5282 27.1147 61.7615 26.8767 61.9295 26.578L63.4135 27.306C63.2642 27.67 63.0309 27.992 62.7135 28.272C62.3962 28.552 62.0182 28.7713 61.5795 28.93C61.1502 29.0887 60.6742 29.168 60.1515 29.168Z" fill="#E7E7E7"></path> </svg> 