<?xml version="1.0" encoding="UTF-8"?> <svg xmlns="http://www.w3.org/2000/svg" width="209" height="55" viewBox="0 0 209 55" fill="none"> <path d="M19.3738 12.3112H0V1.06475H50.2654V12.3112H30.8916V53.6369H19.3738V12.3112Z" fill="url(#paint0_linear_517_234)"></path> <path d="M67.1925 1.06475H79.8421L102.678 53.6369H90.2946L86.0337 43.4552H61.0009L56.6734 53.6369H44.3567L67.1925 1.06475ZM81.3067 32.2753L73.5173 13.9083L65.7278 32.2753H81.3067Z" fill="url(#paint1_linear_517_234)"></path> <path d="M128.239 54.7016C123.711 54.7016 119.717 53.9474 116.255 52.439C112.793 50.8863 110.085 48.668 108.132 45.7843C106.224 42.9006 105.27 39.5067 105.27 35.6026H118.252C118.341 38.2645 119.273 40.3496 121.048 41.858C122.824 43.3664 125.309 44.1206 128.505 44.1206C131.612 44.1206 134.009 43.5661 135.695 42.457C137.426 41.3479 138.292 39.8395 138.292 37.9318C138.292 36.5565 137.781 35.4917 136.76 34.7375C135.784 33.939 134.563 33.3844 133.099 33.0738C131.634 32.7633 129.526 32.4306 126.774 32.0756C122.646 31.5876 119.251 30.9665 116.588 30.2123C113.925 29.4581 111.639 28.0163 109.73 25.8868C107.822 23.7129 106.867 20.6074 106.867 16.5702C106.867 13.1985 107.711 10.2704 109.397 7.786C111.084 5.25721 113.503 3.32735 116.654 1.99641C119.806 0.66547 123.534 0 127.839 0C132.1 0 135.873 0.709834 139.157 2.1295C142.486 3.50481 145.06 5.5234 146.88 8.18528C148.744 10.8028 149.676 13.9083 149.676 17.5019H136.894C136.716 15.328 135.828 13.6421 134.23 12.4443C132.633 11.2021 130.436 10.581 127.639 10.581C124.799 10.581 122.602 11.069 121.048 12.045C119.495 13.021 118.718 14.4185 118.718 16.2375C118.718 17.7015 119.206 18.8328 120.183 19.6314C121.204 20.4299 122.491 21.0067 124.044 21.3616C125.598 21.6721 127.75 21.9827 130.502 22.2932C134.63 22.7812 138.003 23.4024 140.622 24.1566C143.285 24.9108 145.549 26.3526 147.413 28.4821C149.321 30.6116 150.275 33.695 150.275 37.7321C150.275 41.1038 149.388 44.0763 147.612 46.6494C145.837 49.1782 143.285 51.1524 139.956 52.5721C136.627 53.9918 132.721 54.7016 128.239 54.7016Z" fill="url(#paint2_linear_517_234)"></path> <path d="M158.681 1.06475H170.132V21.5612L191.969 1.06475H207.681L182.648 24.1566L208.081 53.6369H192.768L174.526 31.6764L170.132 35.7357V53.6369H158.681V1.06475Z" fill="url(#paint3_linear_517_234)"></path> <defs> <linearGradient id="paint0_linear_517_234" x1="-26.508" y1="-34.7662" x2="192.297" y2="-58.4249" gradientUnits="userSpaceOnUse"> <stop stop-color="#B0FFC1"></stop> <stop offset="0.211458" stop-color="#ECFFBB"></stop> <stop offset="0.398958" stop-color="#FFB8BC"></stop> <stop offset="0.565625" stop-color="#F3B5CC"></stop> <stop offset="0.732292" stop-color="#E69BF9"></stop> <stop offset="0.867708" stop-color="#97B4FF"></stop> <stop offset="1" stop-color="#08FFFD"></stop> </linearGradient> <linearGradient id="paint1_linear_517_234" x1="-26.508" y1="-34.7662" x2="192.297" y2="-58.4249" gradientUnits="userSpaceOnUse"> <stop stop-color="#B0FFC1"></stop> <stop offset="0.211458" stop-color="#ECFFBB"></stop> <stop offset="0.398958" stop-color="#FFB8BC"></stop> <stop offset="0.565625" stop-color="#F3B5CC"></stop> <stop offset="0.732292" stop-color="#E69BF9"></stop> <stop offset="0.867708" stop-color="#97B4FF"></stop> <stop offset="1" stop-color="#08FFFD"></stop> </linearGradient> <linearGradient id="paint2_linear_517_234" x1="-26.508" y1="-34.7662" x2="192.297" y2="-58.4249" gradientUnits="userSpaceOnUse"> <stop stop-color="#B0FFC1"></stop> <stop offset="0.211458" stop-color="#ECFFBB"></stop> <stop offset="0.398958" stop-color="#FFB8BC"></stop> <stop offset="0.565625" stop-color="#F3B5CC"></stop> <stop offset="0.732292" stop-color="#E69BF9"></stop> <stop offset="0.867708" stop-color="#97B4FF"></stop> <stop offset="1" stop-color="#08FFFD"></stop> </linearGradient> <linearGradient id="paint3_linear_517_234" x1="-26.508" y1="-34.7662" x2="192.297" y2="-58.4249" gradientUnits="userSpaceOnUse"> <stop stop-color="#B0FFC1"></stop> <stop offset="0.211458" stop-color="#ECFFBB"></stop> <stop offset="0.398958" stop-color="#FFB8BC"></stop> <stop offset="0.565625" stop-color="#F3B5CC"></stop> <stop offset="0.732292" stop-color="#E69BF9"></stop> <stop offset="0.867708" stop-color="#97B4FF"></stop> <stop offset="1" stop-color="#08FFFD"></stop> </linearGradient> </defs> </svg> 