<svg width="50" height="100" viewBox="0 0 50 100" fill="none" xmlns="http://www.w3.org/2000/svg">
<rect x="3" y="15" width="44" height="71" rx="22" fill="#2C2C2C"/>
<path d="M19.664 49.192C18.7147 49.192 17.8827 48.936 17.168 48.424C16.4533 47.912 15.8933 47.192 15.488 46.264C15.0933 45.336 14.896 44.2587 14.896 43.032C14.896 41.7947 15.0933 40.7173 15.488 39.8C15.8827 38.8827 16.4373 38.168 17.152 37.656C17.8667 37.144 18.6987 36.888 19.648 36.888C20.6187 36.888 21.456 37.144 22.16 37.656C22.8747 38.168 23.4347 38.888 23.84 39.816C24.2453 40.7333 24.448 41.8053 24.448 43.032C24.448 44.2587 24.2453 45.336 23.84 46.264C23.4453 47.1813 22.8907 47.9013 22.176 48.424C21.4613 48.936 20.624 49.192 19.664 49.192ZM19.68 47.208C20.224 47.208 20.688 47.0427 21.072 46.712C21.456 46.3707 21.7493 45.8907 21.952 45.272C22.1653 44.6427 22.272 43.896 22.272 43.032C22.272 42.168 22.1653 41.4267 21.952 40.808C21.7493 40.1787 21.4507 39.6987 21.056 39.368C20.672 39.0373 20.2027 38.872 19.648 38.872C19.1147 38.872 18.656 39.0373 18.272 39.368C17.888 39.6987 17.5893 40.1787 17.376 40.808C17.1733 41.4267 17.072 42.168 17.072 43.032C17.072 43.8853 17.1733 44.6267 17.376 45.256C17.5893 45.8747 17.888 46.3547 18.272 46.696C18.6667 47.0373 19.136 47.208 19.68 47.208ZM30.0161 49.192C29.3655 49.192 28.7468 49.0747 28.1601 48.84C27.5841 48.5947 27.0881 48.2533 26.6721 47.816C26.2668 47.368 25.9895 46.84 25.8401 46.232L27.7441 45.56C27.9361 46.104 28.2295 46.52 28.6241 46.808C29.0188 47.0853 29.4828 47.224 30.0161 47.224C30.4428 47.224 30.8108 47.144 31.1201 46.984C31.4401 46.824 31.6908 46.5947 31.8721 46.296C32.0535 45.9867 32.1441 45.624 32.1441 45.208C32.1441 44.792 32.0535 44.44 31.8721 44.152C31.7015 43.8533 31.4561 43.624 31.1361 43.464C30.8161 43.304 30.4375 43.224 30.0001 43.224C29.7975 43.224 29.5841 43.2453 29.3601 43.288C29.1468 43.3307 28.9548 43.3947 28.7841 43.48L28.2881 42.44L31.3761 38.92H26.5121V37.08H33.8241V38.792L30.7201 42.424L30.7521 41.608C31.4668 41.6187 32.0908 41.7733 32.6241 42.072C33.1575 42.3707 33.5735 42.7813 33.8721 43.304C34.1708 43.8267 34.3201 44.44 34.3201 45.144C34.3201 45.912 34.1335 46.6053 33.7601 47.224C33.3868 47.832 32.8748 48.312 32.2241 48.664C31.5735 49.016 30.8375 49.192 30.0161 49.192Z" fill="#F9F9F9"/>
<path d="M12.5641 67L9.56806 56.57H10.7021L13.2921 65.908H13.0541L15.7141 56.57H16.9041L19.5501 65.908H19.2981L21.9021 56.57H23.0361L20.0401 67H18.8501L16.1761 57.62H16.4281L13.7541 67H12.5641ZM27.1288 67.168C26.4288 67.168 25.7941 67 25.2248 66.664C24.6648 66.3187 24.2214 65.8473 23.8948 65.25C23.5681 64.6527 23.4048 63.976 23.4048 63.22C23.4048 62.464 23.5634 61.7967 23.8808 61.218C24.1981 60.63 24.6274 60.168 25.1688 59.832C25.7194 59.496 26.3354 59.328 27.0168 59.328C27.5581 59.328 28.0388 59.4307 28.4588 59.636C28.8881 59.832 29.2521 60.1027 29.5508 60.448C29.8494 60.784 30.0781 61.1667 30.2368 61.596C30.3954 62.016 30.4748 62.45 30.4748 62.898C30.4748 62.9913 30.4701 63.0987 30.4608 63.22C30.4514 63.332 30.4374 63.4487 30.4188 63.57H24.0768V62.59H29.8168L29.3128 63.01C29.3968 62.4967 29.3361 62.0393 29.1308 61.638C28.9348 61.2273 28.6501 60.9053 28.2768 60.672C27.9034 60.4293 27.4834 60.308 27.0168 60.308C26.5501 60.308 26.1161 60.4293 25.7148 60.672C25.3228 60.9147 25.0148 61.2553 24.7908 61.694C24.5668 62.1233 24.4781 62.6367 24.5248 63.234C24.4781 63.8313 24.5714 64.354 24.8048 64.802C25.0474 65.2407 25.3741 65.5813 25.7848 65.824C26.2048 66.0667 26.6528 66.188 27.1288 66.188C27.6794 66.188 28.1414 66.0573 28.5148 65.796C28.8881 65.5347 29.1914 65.208 29.4248 64.816L30.3208 65.292C30.1714 65.628 29.9428 65.9407 29.6348 66.23C29.3268 66.51 28.9581 66.7387 28.5288 66.916C28.1088 67.084 27.6421 67.168 27.1288 67.168ZM35.714 67.168C35.014 67.168 34.384 67 33.824 66.664C33.264 66.3187 32.8207 65.852 32.494 65.264C32.1767 64.6667 32.018 63.9947 32.018 63.248C32.018 62.492 32.1767 61.82 32.494 61.232C32.8207 60.644 33.2594 60.182 33.81 59.846C34.37 59.5007 35.0047 59.328 35.714 59.328C36.358 59.328 36.932 59.468 37.436 59.748C37.94 60.028 38.3367 60.406 38.626 60.882L38.458 61.176V56.402H39.508V67H38.458V65.32L38.626 65.474C38.3647 66.0153 37.9727 66.4353 37.45 66.734C36.9367 67.0233 36.358 67.168 35.714 67.168ZM35.77 66.118C36.274 66.118 36.7267 65.992 37.128 65.74C37.5387 65.488 37.8607 65.1473 38.094 64.718C38.3367 64.2793 38.458 63.7893 38.458 63.248C38.458 62.7067 38.3367 62.2213 38.094 61.792C37.8607 61.3533 37.5387 61.008 37.128 60.756C36.7267 60.504 36.274 60.378 35.77 60.378C35.2754 60.378 34.8274 60.504 34.426 60.756C34.0247 61.008 33.7074 61.3487 33.474 61.778C33.25 62.2073 33.138 62.6973 33.138 63.248C33.138 63.7893 33.25 64.2793 33.474 64.718C33.7074 65.1473 34.02 65.488 34.412 65.74C34.8134 65.992 35.266 66.118 35.77 66.118Z" fill="#999999"/>
</svg>
