<svg width="50" height="100" viewBox="0 0 50 100" fill="none" xmlns="http://www.w3.org/2000/svg">
<rect x="3" y="15" width="44" height="71" rx="22" fill="#2C2C2C"/>
<path d="M21.664 49.192C20.7147 49.192 19.8827 48.936 19.168 48.424C18.4533 47.912 17.8933 47.192 17.488 46.264C17.0933 45.336 16.896 44.2587 16.896 43.032C16.896 41.7947 17.0933 40.7173 17.488 39.8C17.8827 38.8827 18.4373 38.168 19.152 37.656C19.8667 37.144 20.6987 36.888 21.648 36.888C22.6187 36.888 23.456 37.144 24.16 37.656C24.8747 38.168 25.4347 38.888 25.84 39.816C26.2453 40.7333 26.448 41.8053 26.448 43.032C26.448 44.2587 26.2453 45.336 25.84 46.264C25.4453 47.1813 24.8907 47.9013 24.176 48.424C23.4613 48.936 22.624 49.192 21.664 49.192ZM21.68 47.208C22.224 47.208 22.688 47.0427 23.072 46.712C23.456 46.3707 23.7493 45.8907 23.952 45.272C24.1653 44.6427 24.272 43.896 24.272 43.032C24.272 42.168 24.1653 41.4267 23.952 40.808C23.7493 40.1787 23.4507 39.6987 23.056 39.368C22.672 39.0373 22.2027 38.872 21.648 38.872C21.1147 38.872 20.656 39.0373 20.272 39.368C19.888 39.6987 19.5893 40.1787 19.376 40.808C19.1733 41.4267 19.072 42.168 19.072 43.032C19.072 43.8853 19.1733 44.6267 19.376 45.256C19.5893 45.8747 19.888 46.3547 20.272 46.696C20.6667 47.0373 21.136 47.208 21.68 47.208ZM30.0961 49V38.936H27.7921V37.08H32.2721V49H30.0961Z" fill="#F9F9F9"/>
<path d="M12.2808 67V56.57H13.2608L17.1808 62.254H16.6348L20.5408 56.57H21.5208V67H20.4008V58.082L20.7648 58.222L16.9288 63.78H16.8728L13.0508 58.222L13.4008 58.082V67H12.2808ZM27.344 67.168C26.6346 67.168 25.9906 67 25.412 66.664C24.8333 66.3187 24.3713 65.852 24.026 65.264C23.69 64.6667 23.522 63.99 23.522 63.234C23.522 62.4873 23.69 61.82 24.026 61.232C24.362 60.644 24.8146 60.182 25.384 59.846C25.9626 59.5007 26.616 59.328 27.344 59.328C28.072 59.328 28.7206 59.496 29.29 59.832C29.8686 60.168 30.3213 60.63 30.648 61.218C30.984 61.806 31.152 62.478 31.152 63.234C31.152 63.9993 30.9793 64.6807 30.634 65.278C30.2886 65.866 29.8266 66.328 29.248 66.664C28.6786 67 28.044 67.168 27.344 67.168ZM27.344 66.118C27.848 66.118 28.3006 65.992 28.702 65.74C29.1126 65.488 29.4346 65.1427 29.668 64.704C29.9106 64.2653 30.032 63.7753 30.032 63.234C30.032 62.6927 29.9106 62.2073 29.668 61.778C29.4346 61.3487 29.1126 61.008 28.702 60.756C28.3006 60.504 27.848 60.378 27.344 60.378C26.84 60.378 26.3826 60.504 25.972 60.756C25.5706 61.008 25.2486 61.3487 25.006 61.778C24.7633 62.2073 24.642 62.6927 24.642 63.234C24.642 63.7753 24.7633 64.2653 25.006 64.704C25.2486 65.1427 25.5706 65.488 25.972 65.74C26.3826 65.992 26.84 66.118 27.344 66.118ZM33.0038 67V59.496H34.0538V60.952L33.8158 60.896C34.0024 60.4107 34.3058 60.028 34.7258 59.748C35.1551 59.468 35.6498 59.328 36.2098 59.328C36.7418 59.328 37.2178 59.4493 37.6378 59.692C38.0671 59.9347 38.4031 60.2707 38.6458 60.7C38.8978 61.12 39.0238 61.596 39.0238 62.128V67H37.9738V62.534C37.9738 62.0767 37.8898 61.6893 37.7218 61.372C37.5631 61.0547 37.3344 60.812 37.0358 60.644C36.7464 60.4667 36.4104 60.378 36.0278 60.378C35.6451 60.378 35.3044 60.4667 35.0058 60.644C34.7071 60.812 34.4738 61.0593 34.3058 61.386C34.1378 61.7033 34.0538 62.086 34.0538 62.534V67H33.0038Z" fill="#999999"/>
</svg>
