<svg width="50" height="100" viewBox="0 0 50 100" fill="none" xmlns="http://www.w3.org/2000/svg">
<rect x="3" y="15" width="44" height="71" rx="22" fill="#2C2C2C"/>
<path d="M20.664 49.192C19.7147 49.192 18.8827 48.936 18.168 48.424C17.4533 47.912 16.8933 47.192 16.488 46.264C16.0933 45.336 15.896 44.2587 15.896 43.032C15.896 41.7947 16.0933 40.7173 16.488 39.8C16.8827 38.8827 17.4373 38.168 18.152 37.656C18.8667 37.144 19.6987 36.888 20.648 36.888C21.6187 36.888 22.456 37.144 23.16 37.656C23.8747 38.168 24.4347 38.888 24.84 39.816C25.2453 40.7333 25.448 41.8053 25.448 43.032C25.448 44.2587 25.2453 45.336 24.84 46.264C24.4453 47.1813 23.8907 47.9013 23.176 48.424C22.4613 48.936 21.624 49.192 20.664 49.192ZM20.68 47.208C21.224 47.208 21.688 47.0427 22.072 46.712C22.456 46.3707 22.7493 45.8907 22.952 45.272C23.1653 44.6427 23.272 43.896 23.272 43.032C23.272 42.168 23.1653 41.4267 22.952 40.808C22.7493 40.1787 22.4507 39.6987 22.056 39.368C21.672 39.0373 21.2027 38.872 20.648 38.872C20.1147 38.872 19.656 39.0373 19.272 39.368C18.888 39.6987 18.5893 40.1787 18.376 40.808C18.1733 41.4267 18.072 42.168 18.072 43.032C18.072 43.8853 18.1733 44.6267 18.376 45.256C18.5893 45.8747 18.888 46.3547 19.272 46.696C19.6667 47.0373 20.136 47.208 20.68 47.208ZM27.0641 49V47.352L30.2961 43.976C30.9361 43.304 31.4268 42.7707 31.7681 42.376C32.1201 41.9707 32.3655 41.624 32.5041 41.336C32.6428 41.048 32.7121 40.7547 32.7121 40.456C32.7121 39.9547 32.5521 39.56 32.2321 39.272C31.9228 38.984 31.5228 38.84 31.0321 38.84C30.5201 38.84 30.0775 38.9893 29.7041 39.288C29.3308 39.576 29.0588 40.0027 28.8881 40.568L26.9841 39.976C27.1121 39.3467 27.3735 38.8027 27.7681 38.344C28.1628 37.8747 28.6428 37.5173 29.2081 37.272C29.7841 37.016 30.3921 36.888 31.0321 36.888C31.8001 36.888 32.4721 37.0267 33.0481 37.304C33.6348 37.5813 34.0881 37.9707 34.4081 38.472C34.7388 38.9733 34.9041 39.56 34.9041 40.232C34.9041 40.6587 34.8241 41.08 34.6641 41.496C34.5041 41.912 34.2641 42.3387 33.9441 42.776C33.6241 43.2027 33.2081 43.6827 32.6961 44.216L29.8961 47.16H35.0641V49H27.0641Z" fill="#F9F9F9"/>
<path d="M16.4169 67V57.62H13.5329V56.57H20.3929V57.62H17.5369V67H16.4169ZM23.7204 67.168C23.1978 67.168 22.7218 67.0467 22.2924 66.804C21.8631 66.552 21.5224 66.2067 21.2704 65.768C21.0278 65.32 20.9064 64.8067 20.9064 64.228V59.496H21.9564V64.102C21.9564 64.5033 22.0358 64.858 22.1944 65.166C22.3624 65.4647 22.5911 65.698 22.8804 65.866C23.1791 66.034 23.5198 66.118 23.9024 66.118C24.2851 66.118 24.6258 66.034 24.9244 65.866C25.2231 65.6887 25.4564 65.4413 25.6244 65.124C25.7924 64.7973 25.8764 64.41 25.8764 63.962V59.496H26.9264V67H25.8764V65.544L26.1144 65.6C25.9371 66.0853 25.6338 66.468 25.2044 66.748C24.7751 67.028 24.2804 67.168 23.7204 67.168ZM32.5018 67.168C31.8018 67.168 31.1671 67 30.5978 66.664C30.0378 66.3187 29.5945 65.8473 29.2678 65.25C28.9411 64.6527 28.7778 63.976 28.7778 63.22C28.7778 62.464 28.9365 61.7967 29.2538 61.218C29.5711 60.63 30.0005 60.168 30.5418 59.832C31.0925 59.496 31.7085 59.328 32.3898 59.328C32.9311 59.328 33.4118 59.4307 33.8318 59.636C34.2611 59.832 34.6251 60.1027 34.9238 60.448C35.2225 60.784 35.4511 61.1667 35.6098 61.596C35.7685 62.016 35.8478 62.45 35.8478 62.898C35.8478 62.9913 35.8431 63.0987 35.8338 63.22C35.8245 63.332 35.8105 63.4487 35.7918 63.57H29.4498V62.59H35.1898L34.6858 63.01C34.7698 62.4967 34.7091 62.0393 34.5038 61.638C34.3078 61.2273 34.0231 60.9053 33.6498 60.672C33.2765 60.4293 32.8565 60.308 32.3898 60.308C31.9231 60.308 31.4891 60.4293 31.0878 60.672C30.6958 60.9147 30.3878 61.2553 30.1638 61.694C29.9398 62.1233 29.8511 62.6367 29.8978 63.234C29.8511 63.8313 29.9445 64.354 30.1778 64.802C30.4205 65.2407 30.7471 65.5813 31.1578 65.824C31.5778 66.0667 32.0258 66.188 32.5018 66.188C33.0525 66.188 33.5145 66.0573 33.8878 65.796C34.2611 65.5347 34.5645 65.208 34.7978 64.816L35.6938 65.292C35.5445 65.628 35.3158 65.9407 35.0078 66.23C34.6998 66.51 34.3311 66.7387 33.9018 66.916C33.4818 67.084 33.0151 67.168 32.5018 67.168Z" fill="#999999"/>
</svg>
