<svg width="50" height="100" viewBox="0 0 50 100" fill="none" xmlns="http://www.w3.org/2000/svg">
<rect x="3" y="15" width="44" height="71" rx="22" fill="#2C2C2C"/>
<path d="M19.664 49.192C18.7147 49.192 17.8827 48.936 17.168 48.424C16.4533 47.912 15.8933 47.192 15.488 46.264C15.0933 45.336 14.896 44.2587 14.896 43.032C14.896 41.7947 15.0933 40.7173 15.488 39.8C15.8827 38.8827 16.4373 38.168 17.152 37.656C17.8667 37.144 18.6987 36.888 19.648 36.888C20.6187 36.888 21.456 37.144 22.16 37.656C22.8747 38.168 23.4347 38.888 23.84 39.816C24.2453 40.7333 24.448 41.8053 24.448 43.032C24.448 44.2587 24.2453 45.336 23.84 46.264C23.4453 47.1813 22.8907 47.9013 22.176 48.424C21.4613 48.936 20.624 49.192 19.664 49.192ZM19.68 47.208C20.224 47.208 20.688 47.0427 21.072 46.712C21.456 46.3707 21.7493 45.8907 21.952 45.272C22.1653 44.6427 22.272 43.896 22.272 43.032C22.272 42.168 22.1653 41.4267 21.952 40.808C21.7493 40.1787 21.4507 39.6987 21.056 39.368C20.672 39.0373 20.2027 38.872 19.648 38.872C19.1147 38.872 18.656 39.0373 18.272 39.368C17.888 39.6987 17.5893 40.1787 17.376 40.808C17.1733 41.4267 17.072 42.168 17.072 43.032C17.072 43.8853 17.1733 44.6267 17.376 45.256C17.5893 45.8747 17.888 46.3547 18.272 46.696C18.6667 47.0373 19.136 47.208 19.68 47.208ZM30.0801 49.192C29.4508 49.192 28.8481 49.0747 28.2721 48.84C27.7068 48.6053 27.2161 48.2747 26.8001 47.848C26.3948 47.4107 26.1175 46.8933 25.9681 46.296L27.8561 45.624C28.0375 46.168 28.3308 46.5733 28.7361 46.84C29.1415 47.096 29.5895 47.224 30.0801 47.224C30.4855 47.224 30.8428 47.1387 31.1521 46.968C31.4721 46.7867 31.7175 46.5413 31.8881 46.232C32.0588 45.912 32.1441 45.544 32.1441 45.128C32.1441 44.712 32.0535 44.3493 31.8721 44.04C31.7015 43.7307 31.4615 43.4907 31.1521 43.32C30.8428 43.1387 30.4855 43.048 30.0801 43.048C29.6641 43.048 29.2855 43.1387 28.9441 43.32C28.6135 43.5013 28.3735 43.7627 28.2241 44.104L26.4481 43.704L27.3921 37.08H33.8881V38.92H28.2561L29.0721 37.976L28.4001 42.968L27.7761 42.456C28.0748 42.0187 28.4375 41.6987 28.8641 41.496C29.3015 41.2933 29.8295 41.192 30.4481 41.192C31.2375 41.192 31.9201 41.3627 32.4961 41.704C33.0828 42.0453 33.5361 42.5093 33.8561 43.096C34.1761 43.6827 34.3361 44.36 34.3361 45.128C34.3361 45.896 34.1495 46.5893 33.7761 47.208C33.4028 47.8267 32.8961 48.312 32.2561 48.664C31.6161 49.016 30.8908 49.192 30.0801 49.192Z" fill="#F9F9F9"/>
<path d="M18.4117 67V56.57H24.8517V57.62H19.5317V61.246H24.4317V62.296H19.5317V67H18.4117ZM25.9686 67V59.496H27.0186V60.728L26.8786 60.546C27.056 60.1913 27.322 59.9113 27.6766 59.706C28.0406 59.5007 28.4793 59.398 28.9926 59.398H29.4686V60.448H28.8106C28.2693 60.448 27.8353 60.616 27.5086 60.952C27.182 61.288 27.0186 61.764 27.0186 62.38V67H25.9686ZM30.6991 67V59.496H31.7491V67H30.6991ZM30.6991 58.11V56.57H31.7491V58.11H30.6991Z" fill="#999999"/>
</svg>
