<svg width="50" height="100" viewBox="0 0 50 100" fill="none" xmlns="http://www.w3.org/2000/svg">
<rect x="3" y="15" width="44" height="71" rx="22" fill="#2C2C2C"/>
<path d="M19.664 49.192C18.7147 49.192 17.8827 48.936 17.168 48.424C16.4533 47.912 15.8933 47.192 15.488 46.264C15.0933 45.336 14.896 44.2587 14.896 43.032C14.896 41.7947 15.0933 40.7173 15.488 39.8C15.8827 38.8827 16.4373 38.168 17.152 37.656C17.8667 37.144 18.6987 36.888 19.648 36.888C20.6187 36.888 21.456 37.144 22.16 37.656C22.8747 38.168 23.4347 38.888 23.84 39.816C24.2453 40.7333 24.448 41.8053 24.448 43.032C24.448 44.2587 24.2453 45.336 23.84 46.264C23.4453 47.1813 22.8907 47.9013 22.176 48.424C21.4613 48.936 20.624 49.192 19.664 49.192ZM19.68 47.208C20.224 47.208 20.688 47.0427 21.072 46.712C21.456 46.3707 21.7493 45.8907 21.952 45.272C22.1653 44.6427 22.272 43.896 22.272 43.032C22.272 42.168 22.1653 41.4267 21.952 40.808C21.7493 40.1787 21.4507 39.6987 21.056 39.368C20.672 39.0373 20.2027 38.872 19.648 38.872C19.1147 38.872 18.656 39.0373 18.272 39.368C17.888 39.6987 17.5893 40.1787 17.376 40.808C17.1733 41.4267 17.072 42.168 17.072 43.032C17.072 43.8853 17.1733 44.6267 17.376 45.256C17.5893 45.8747 17.888 46.3547 18.272 46.696C18.6667 47.0373 19.136 47.208 19.68 47.208ZM31.3761 49V46.376H25.9041V44.552L31.2481 37.08H33.5201V44.552H35.2641V46.376H33.5201V49H31.3761ZM27.5041 45.336L27.1201 44.552H31.3761V38.792L31.9361 38.968L27.5041 45.336Z" fill="#F9F9F9"/>
<path d="M16.4306 67V57.62H13.5466V56.57H20.4066V57.62H17.5506V67H16.4306ZM21.6346 67V56.402H22.6846V60.952L22.4466 60.896C22.6333 60.4107 22.9366 60.028 23.3566 59.748C23.786 59.468 24.2806 59.328 24.8406 59.328C25.3726 59.328 25.8486 59.4493 26.2686 59.692C26.698 59.9347 27.034 60.2707 27.2766 60.7C27.5286 61.12 27.6546 61.596 27.6546 62.128V67H26.6046V62.534C26.6046 62.0767 26.5206 61.6893 26.3526 61.372C26.1846 61.0547 25.9513 60.812 25.6526 60.644C25.3633 60.4667 25.032 60.378 24.6586 60.378C24.2853 60.378 23.9493 60.4667 23.6506 60.644C23.352 60.812 23.114 61.0593 22.9366 61.386C22.7686 61.7033 22.6846 62.086 22.6846 62.534V67H21.6346ZM32.32 67.168C31.7974 67.168 31.3214 67.0467 30.892 66.804C30.4627 66.552 30.122 66.2067 29.87 65.768C29.6274 65.32 29.506 64.8067 29.506 64.228V59.496H30.556V64.102C30.556 64.5033 30.6354 64.858 30.794 65.166C30.962 65.4647 31.1907 65.698 31.48 65.866C31.7787 66.034 32.1194 66.118 32.502 66.118C32.8847 66.118 33.2254 66.034 33.524 65.866C33.8227 65.6887 34.056 65.4413 34.224 65.124C34.392 64.7973 34.476 64.41 34.476 63.962V59.496H35.526V67H34.476V65.544L34.714 65.6C34.5367 66.0853 34.2334 66.468 33.804 66.748C33.3747 67.028 32.88 67.168 32.32 67.168Z" fill="#999999"/>
</svg>
