<svg width="50" height="100" viewBox="0 0 50 100" fill="none" xmlns="http://www.w3.org/2000/svg">
<rect x="3" y="15" width="44" height="71" rx="22" fill="#2C2C2C"/>
<path d="M20.664 49.192C19.7147 49.192 18.8827 48.936 18.168 48.424C17.4533 47.912 16.8933 47.192 16.488 46.264C16.0933 45.336 15.896 44.2587 15.896 43.032C15.896 41.7947 16.0933 40.7173 16.488 39.8C16.8827 38.8827 17.4373 38.168 18.152 37.656C18.8667 37.144 19.6987 36.888 20.648 36.888C21.6187 36.888 22.456 37.144 23.16 37.656C23.8747 38.168 24.4347 38.888 24.84 39.816C25.2453 40.7333 25.448 41.8053 25.448 43.032C25.448 44.2587 25.2453 45.336 24.84 46.264C24.4453 47.1813 23.8907 47.9013 23.176 48.424C22.4613 48.936 21.624 49.192 20.664 49.192ZM20.68 47.208C21.224 47.208 21.688 47.0427 22.072 46.712C22.456 46.3707 22.7493 45.8907 22.952 45.272C23.1653 44.6427 23.272 43.896 23.272 43.032C23.272 42.168 23.1653 41.4267 22.952 40.808C22.7493 40.1787 22.4507 39.6987 22.056 39.368C21.672 39.0373 21.2027 38.872 20.648 38.872C20.1147 38.872 19.656 39.0373 19.272 39.368C18.888 39.6987 18.5893 40.1787 18.376 40.808C18.1733 41.4267 18.072 42.168 18.072 43.032C18.072 43.8853 18.1733 44.6267 18.376 45.256C18.5893 45.8747 18.888 46.3547 19.272 46.696C19.6667 47.0373 20.136 47.208 20.68 47.208ZM31.1601 49.192C30.3495 49.192 29.6295 49.0213 29.0001 48.68C28.3815 48.328 27.8961 47.8587 27.5441 47.272C27.1921 46.6747 27.0161 45.9973 27.0161 45.24C27.0161 44.856 27.0535 44.472 27.1281 44.088C27.2135 43.704 27.3628 43.2933 27.5761 42.856C27.8001 42.4187 28.1201 41.9333 28.5361 41.4L31.8641 37.08H34.4561L30.4081 42.28L30.0561 41.896C30.2055 41.7787 30.3601 41.688 30.5201 41.624C30.6801 41.5493 30.8401 41.496 31.0001 41.464C31.1708 41.432 31.3468 41.416 31.5281 41.416C32.2535 41.416 32.8988 41.5813 33.4641 41.912C34.0295 42.2427 34.4721 42.696 34.7921 43.272C35.1228 43.8373 35.2881 44.4773 35.2881 45.192C35.2881 45.96 35.1121 46.648 34.7601 47.256C34.4081 47.8533 33.9175 48.328 33.2881 48.68C32.6695 49.0213 31.9601 49.192 31.1601 49.192ZM31.1601 47.224C31.5228 47.224 31.8481 47.144 32.1361 46.984C32.4348 46.8133 32.6695 46.5733 32.8401 46.264C33.0215 45.9547 33.1121 45.608 33.1121 45.224C33.1121 44.8187 33.0215 44.472 32.8401 44.184C32.6695 43.8853 32.4401 43.6507 32.1521 43.48C31.8641 43.3093 31.5335 43.224 31.1601 43.224C30.7975 43.224 30.4668 43.3093 30.1681 43.48C29.8695 43.6507 29.6295 43.8853 29.4481 44.184C29.2775 44.472 29.1921 44.8187 29.1921 45.224C29.1921 45.608 29.2775 45.9547 29.4481 46.264C29.6295 46.5733 29.8695 46.8133 30.1681 46.984C30.4668 47.144 30.7975 47.224 31.1601 47.224Z" fill="#F9F9F9"/>
<path d="M19.206 67.168C18.5433 67.168 17.9413 67.042 17.4 66.79C16.8586 66.538 16.4013 66.202 16.028 65.782C15.6546 65.3527 15.3886 64.8813 15.23 64.368L16.238 63.99C16.4806 64.6993 16.8586 65.2407 17.372 65.614C17.8853 65.978 18.4966 66.16 19.206 66.16C19.654 66.16 20.046 66.09 20.382 65.95C20.7273 65.8007 20.9933 65.5953 21.18 65.334C21.3666 65.0727 21.46 64.7693 21.46 64.424C21.46 63.9107 21.32 63.514 21.04 63.234C20.76 62.954 20.3586 62.7393 19.836 62.59L17.96 62.03C17.2226 61.8153 16.6533 61.456 16.252 60.952C15.86 60.448 15.664 59.874 15.664 59.23C15.664 58.6793 15.7993 58.194 16.07 57.774C16.3406 57.3447 16.7093 57.0087 17.176 56.766C17.652 56.5233 18.1886 56.402 18.786 56.402C19.4113 56.402 19.9713 56.5187 20.466 56.752C20.97 56.976 21.3946 57.2747 21.74 57.648C22.0853 58.0213 22.3326 58.4367 22.482 58.894L21.502 59.286C21.278 58.67 20.928 58.2033 20.452 57.886C19.9853 57.5687 19.4346 57.41 18.8 57.41C18.3986 57.41 18.044 57.48 17.736 57.62C17.4373 57.76 17.204 57.9607 17.036 58.222C16.868 58.4833 16.784 58.7913 16.784 59.146C16.784 59.5753 16.9193 59.9627 17.19 60.308C17.4606 60.644 17.876 60.896 18.436 61.064L20.088 61.554C20.9093 61.7967 21.53 62.1467 21.95 62.604C22.37 63.0613 22.58 63.6353 22.58 64.326C22.58 64.886 22.4353 65.3807 22.146 65.81C21.866 66.23 21.4693 66.5613 20.956 66.804C20.452 67.0467 19.8686 67.168 19.206 67.168ZM26.4853 67.168C26.0093 67.168 25.5846 67.0793 25.2113 66.902C24.838 66.7153 24.544 66.4633 24.3293 66.146C24.1146 65.8287 24.0073 65.4647 24.0073 65.054C24.0073 64.662 24.0913 64.3073 24.2593 63.99C24.4273 63.6633 24.6886 63.388 25.0433 63.164C25.398 62.94 25.8506 62.7813 26.4013 62.688L29.3413 62.198V63.15L26.6533 63.598C26.112 63.6913 25.72 63.864 25.4773 64.116C25.244 64.368 25.1273 64.6667 25.1273 65.012C25.1273 65.348 25.258 65.6327 25.5193 65.866C25.79 66.0993 26.1353 66.216 26.5553 66.216C27.0686 66.216 27.5166 66.1087 27.8993 65.894C28.282 65.67 28.5806 65.3713 28.7953 64.998C29.01 64.6247 29.1173 64.2093 29.1173 63.752V61.848C29.1173 61.4 28.954 61.036 28.6273 60.756C28.3006 60.476 27.876 60.336 27.3533 60.336C26.896 60.336 26.4946 60.4527 26.1493 60.686C25.804 60.91 25.5473 61.204 25.3793 61.568L24.4273 61.05C24.5673 60.7327 24.7866 60.4433 25.0853 60.182C25.3933 59.9207 25.7433 59.7153 26.1353 59.566C26.5273 59.4073 26.9333 59.328 27.3533 59.328C27.904 59.328 28.3893 59.4353 28.8093 59.65C29.2386 59.8647 29.57 60.1633 29.8033 60.546C30.046 60.9193 30.1673 61.3533 30.1673 61.848V67H29.1173V65.502L29.2713 65.656C29.1406 65.936 28.9353 66.1927 28.6553 66.426C28.3846 66.65 28.0626 66.832 27.6893 66.972C27.3253 67.1027 26.924 67.168 26.4853 67.168ZM35.0603 67.084C34.3883 67.084 33.8703 66.888 33.5063 66.496C33.1423 66.104 32.9603 65.544 32.9603 64.816V60.546H31.5743V59.496H31.9243C32.2416 59.496 32.4936 59.3933 32.6803 59.188C32.867 58.9733 32.9603 58.7073 32.9603 58.39V57.76H34.0103V59.496H35.6623V60.546H34.0103V64.816C34.0103 65.068 34.0476 65.292 34.1223 65.488C34.197 65.6747 34.323 65.824 34.5003 65.936C34.687 66.048 34.9343 66.104 35.2423 66.104C35.317 66.104 35.4056 66.0993 35.5083 66.09C35.611 66.0807 35.6996 66.0713 35.7743 66.062V67C35.6623 67.028 35.5363 67.0467 35.3963 67.056C35.2563 67.0747 35.1443 67.084 35.0603 67.084Z" fill="#999999"/>
</svg>
