<?xml version="1.0" encoding="UTF-8"?> <svg xmlns="http://www.w3.org/2000/svg" width="105" height="65" viewBox="0 0 105 65" fill="none"> <path d="M97.3881 15.6725C98.0817 17.5742 97.614 19.8822 96.0011 22.4915C94.3921 25.0947 91.6874 27.9203 88.0722 30.7933C80.846 36.5357 70.0732 42.3957 57.4657 46.994C44.8583 51.5923 32.8424 54.0441 23.616 54.3024C19 54.4316 15.1113 54.0108 12.2041 53.0548C9.29005 52.0966 7.44622 50.6317 6.75261 48.73C6.05901 46.8283 6.52676 44.5203 8.13959 41.911C9.74865 39.3078 12.4533 36.4822 16.0686 33.6092C23.2947 27.8668 34.0676 22.0068 46.675 17.4085C59.2824 12.8102 71.2983 10.3584 80.5247 10.1001C85.1407 9.97088 89.0294 10.3917 91.9366 11.3477C94.8507 12.3059 96.6945 13.7708 97.3881 15.6725Z" stroke="#F1FFBB"></path> <path d="M99.4081 22.9262C99.7973 24.9127 98.9761 27.1197 96.9769 29.4463C94.9823 31.7674 91.8709 34.1377 87.8526 36.413C79.8208 40.961 68.2673 45.0731 55.0979 47.6534C41.9285 50.2337 29.6774 50.7858 20.5232 49.6051C15.9434 49.0144 12.1675 47.9936 9.44448 46.5968C6.71506 45.1968 5.12166 43.4628 4.73245 41.4763C4.34323 39.4898 5.16445 37.2828 7.1637 34.9562C9.15827 32.6351 12.2697 30.2648 16.288 27.9895C24.3197 23.4415 35.8733 19.3294 49.0427 16.7491C62.2121 14.1688 74.4632 13.6167 83.6174 14.7974C88.1972 15.3881 91.9731 16.4089 94.6961 17.8057C97.4255 19.2057 99.0189 20.9397 99.4081 22.9262Z" stroke="#F1FFBB"></path> </svg> 