<?xml version="1.0" encoding="UTF-8"?> <svg xmlns="http://www.w3.org/2000/svg" width="18" height="18" viewBox="0 0 18 18" fill="none"> <path d="M15.6749 7.3875L16.1174 14.805C16.1324 15.0075 16.0349 15.1425 15.9824 15.2025C15.9224 15.27 15.7949 15.375 15.5849 15.375H13.5374L15.1574 7.3875H15.6749ZM16.4999 4.5L16.4924 4.515C16.5074 4.695 16.4924 4.8825 16.4474 5.07L10.9199 15.2175C10.7399 15.975 10.0649 16.5 9.28491 16.5H15.5849C16.5524 16.5 17.3174 15.6825 17.2424 14.715L16.4999 4.5Z" fill="#F4F4F4"></path> <path d="M8.58768 1.67956C8.66268 1.37956 8.47518 1.07206 8.17518 0.997059C7.87518 0.929559 7.56768 1.10956 7.49268 1.40956L7.11768 2.96206H8.27268L8.58768 1.67956Z" fill="#F4F4F4"></path> <path d="M13.5374 1.65791C13.6049 1.35041 13.4099 1.05791 13.1024 0.990406C12.8024 0.922906 12.5024 1.11791 12.4349 1.42541L12.0974 2.97791H13.2524L13.5374 1.65791Z" fill="#F4F4F4"></path> <path d="M16.3653 3.99709C16.1178 3.39709 15.5328 2.96959 14.8128 2.96959H13.2528L12.8328 4.91209C12.7728 5.17459 12.5403 5.35459 12.2853 5.35459C12.2478 5.35459 12.2028 5.35459 12.1653 5.33959C11.8653 5.27209 11.6703 4.97209 11.7303 4.67209L12.0978 2.96209H8.2728L7.8003 4.91209C7.7403 5.16709 7.5078 5.33959 7.2528 5.33959C7.2078 5.33959 7.1628 5.33209 7.1178 5.32459C6.8178 5.24959 6.6303 4.94959 6.7053 4.64209L7.1103 2.95459H5.5878C4.8528 2.95459 4.2003 3.43459 3.9828 4.13959L0.825304 14.3021C0.495304 15.3896 1.2978 16.4996 2.4303 16.4996H12.2853C13.0653 16.4996 13.7403 15.9746 13.9203 15.2171L16.4478 5.06959C16.4928 4.88209 16.5078 4.69459 16.4928 4.51459C16.4778 4.33459 16.4403 4.15459 16.3653 3.99709ZM11.0253 12.5621H5.0253C4.7178 12.5621 4.4628 12.3071 4.4628 11.9996C4.4628 11.6921 4.7178 11.4371 5.0253 11.4371H11.0253C11.3328 11.4371 11.5878 11.6921 11.5878 11.9996C11.5878 12.3071 11.3328 12.5621 11.0253 12.5621ZM11.7753 9.56209H5.7753C5.4678 9.56209 5.2128 9.30709 5.2128 8.99959C5.2128 8.69209 5.4678 8.43709 5.7753 8.43709H11.7753C12.0828 8.43709 12.3378 8.69209 12.3378 8.99959C12.3378 9.30709 12.0828 9.56209 11.7753 9.56209Z" fill="#F4F4F4"></path> </svg> 