<?xml version="1.0" encoding="UTF-8"?> <svg xmlns="http://www.w3.org/2000/svg" width="100" height="100" viewBox="0 0 100 100" fill="none"> <circle cx="50" cy="50" r="50" fill="#1D1D1D"></circle> <path d="M100 50C100 77.6142 77.6142 100 50 100C22.3858 100 0 77.6142 0 50C0 22.3858 22.3858 0 50 0C77.6142 0 100 22.3858 100 50ZM8.4 50C8.4 72.975 27.025 91.6 50 91.6C72.975 91.6 91.6 72.975 91.6 50C91.6 27.025 72.975 8.4 50 8.4C27.025 8.4 8.4 27.025 8.4 50Z" fill="url(#paint0_linear_552_229)"></path> <defs> <linearGradient id="paint0_linear_552_229" x1="50" y1="-82.2916" x2="126.302" y2="-56.2849" gradientUnits="userSpaceOnUse"> <stop stop-color="#B0FFC1"></stop> <stop offset="0.211458" stop-color="#ECFFBB"></stop> <stop offset="0.398958" stop-color="#FFB8BC"></stop> <stop offset="0.565625" stop-color="#F3B5CC"></stop> <stop offset="0.732292" stop-color="#E69BF9"></stop> <stop offset="0.867708" stop-color="#97B4FF"></stop> <stop offset="1" stop-color="#08FFFD"></stop> </linearGradient> </defs> </svg> 